<?xml version="1.0" standalone="no"?><!DOCTYPE svg PUBLIC "-//W3C//DTD SVG 1.1//EN" "http://www.w3.org/Graphics/SVG/1.1/DTD/svg11.dtd"><svg t="1564565579562" class="icon" viewBox="0 0 1024 1024" version="1.1" xmlns="http://www.w3.org/2000/svg" p-id="7878" xmlns:xlink="http://www.w3.org/1999/xlink" width="200" height="200"><defs><style type="text/css"></style></defs><path d="M539.92448 249.06752v641.9968l-89.84576-12.22656a764.4672 764.4672 0 0 0-235.48928 4.56704l-43.61216 7.66976c-31.00672 0-56.13568-25.344-56.13568-56.59648V296.23296c0-31.26272 25.12896-56.59648 56.13568-56.59648l15.43168-3.35872a704.88064 704.88064 0 0 1 315.25888 3.56352l38.25664 9.22624 58.34752-12.72832a704.90112 704.90112 0 0 1 314.96192 3.29728l14.5408 3.49184c22.87616 5.49888 41.60512 29.3888 41.60512 53.10464V834.4576c0 31.26272-25.12896 56.59648-56.13568 56.59648l-43.776-7.7312a764.47744 764.47744 0 0 0-233.65632-4.99712l-28.61056 3.79904-67.26656 8.92928" fill="#D1D0E8" p-id="7879"></path><path d="M821.1968 402.20672h-215.04a20.48 20.48 0 0 1 0-40.96h215.04a20.48 20.48 0 0 1 0 40.96zM821.1968 545.56672h-215.04a20.48 20.48 0 0 1 0-40.96h215.04a20.48 20.48 0 0 1 0 40.96zM821.1968 688.92672h-215.04a20.48 20.48 0 0 1 0-40.96h215.04a20.48 20.48 0 0 1 0 40.96zM401.3568 402.20672h-215.04a20.48 20.48 0 0 1 0-40.96h215.04a20.48 20.48 0 0 1 0 40.96zM401.3568 545.56672h-215.04a20.48 20.48 0 0 1 0-40.96h215.04a20.48 20.48 0 0 1 0 40.96zM401.3568 688.92672h-215.04a20.48 20.48 0 0 1 0-40.96h215.04a20.48 20.48 0 0 1 0 40.96z" fill="#4362A5" p-id="7880"></path><path d="M498.93376 870.58432c-1.0752 0-2.1504-0.08192-3.20512-0.24576l-89.37472-12.16512a743.4752 743.4752 0 0 0-229.18144 4.44416l-43.60192 7.66976c-1.16736 0.21504-2.3552 0.3072-3.55328 0.3072-42.25024 0-76.61568-34.58048-76.61568-77.07648V255.27296c0-41.69728 33.08544-75.776 74.25024-77.03552l13.44512-2.92864a729.74336 729.74336 0 0 1 324.43392 3.66592l33.66912 8.12032 53.73952-11.73504a730.08128 730.08128 0 0 1 324.10624 3.39968l14.5408 3.49184c32.13312 7.72096 57.30304 39.80288 57.30304 73.02144V793.4976c0 42.496-34.36544 77.07648-76.61568 77.07648-1.19808 0-2.38592-0.1024-3.57376-0.3072l-43.776-7.74144a743.75168 743.75168 0 0 0-227.39968-4.87424l-95.80544 12.72832a18.09408 18.09408 0 0 1-2.78528 0.2048zM295.2192 199.7824c-48.88576 0-97.76128 5.18144-145.408 15.54432l-15.42144 3.35872c-1.4336 0.3072-2.88768 0.47104-4.36224 0.47104-19.6608 0-35.65568 16.19968-35.65568 36.11648V793.4976c0 19.38432 15.14496 35.23584 34.06848 36.07552l41.64608-7.3216a784.47616 784.47616 0 0 1 241.78688-4.67968l66.60096 9.0624 0.01024-602.40896-22.56896-5.43744A686.336 686.336 0 0 0 295.2192 199.7824z m400.32256 610.43712c45.68064 0 91.32032 3.9936 136.50944 11.97056l41.80992 7.39328c18.93376-0.83968 34.06848-16.70144 34.06848-36.07552V255.27296c0-14.36672-12.11392-29.88032-25.9072-33.19808l-14.53056-3.49184a688.9472 688.9472 0 0 0-305.8176-3.20512l-42.21952 9.20576-0.01024 602.13248 72.69376-9.65632a786.7392 786.7392 0 0 1 103.40352-6.84032z" fill="#4362A5" p-id="7881"></path></svg>