<?xml version="1.0" standalone="no"?><!DOCTYPE svg PUBLIC "-//W3C//DTD SVG 1.1//EN" "http://www.w3.org/Graphics/SVG/1.1/DTD/svg11.dtd"><svg t="1564569648210" class="icon" viewBox="0 0 1024 1024" version="1.1" xmlns="http://www.w3.org/2000/svg" p-id="12160" xmlns:xlink="http://www.w3.org/1999/xlink" width="200" height="200"><defs><style type="text/css"></style></defs><path d="M281.694263 251.53011c-12.892743 0-25.177337-5.108445-34.299561-14.230668-9.122224-9.122224-14.230669-21.406818-14.230668-34.299561v-136.225205c0-26.758522 21.650077-48.4086 48.408599-48.408599 26.758522 0 48.4086 21.650077 48.4086 48.408599v136.225205c0 12.892743-5.108445 25.177337-14.109039 34.299561-9.000594 9.122224-21.406818 14.230669-34.177931 14.230668z m459.881696 0c-12.892743 0-25.177337-5.108445-34.177931-14.230668-9.122224-9.122224-14.230669-21.406818-14.109039-34.177931V66.774676c0-12.892743 5.108445-25.177337 14.109039-34.177931 9.122224-9.122224 21.406818-14.230669 34.177931-14.230668 12.892743 0 25.177337 5.108445 34.299561 14.230668C784.997743 41.718969 790.106188 54.003563 790.106188 66.896306v136.225205c0 12.892743-5.108445 25.177337-14.109039 34.29956-9.243853 9.000594-21.528448 14.109039-34.42119 14.109039z m0 0" fill="#040000" p-id="12161"></path><path d="M935.818506 134.887279h-102.047274v59.233638c0 50.841193-41.23245 92.195273-92.195273 92.195273-50.841193 0-92.195273-41.23245-92.195272-92.195273v-59.233638H373.889536v59.233638c0 50.841193-41.35408 92.195273-92.195273 92.195273s-92.195273-41.35408-92.195273-92.195273v-59.233638h-102.047274c-14.473928 0-28.339708 5.716593-38.678227 15.933484-10.21689 10.21689-16.055113 24.2043-16.055114 38.678227V958.44162c0 14.473928 5.716593 28.339708 15.933484 38.678228 10.21689 10.21689 24.2043 16.055113 38.678228 15.933484h848.366789c14.473928 0 28.461337-5.716593 38.678228-15.933484 10.21689-10.21689 16.055113-24.2043 16.055113-38.678228V189.62062c0-14.473928-5.716593-28.461337-15.933483-38.678228-10.33852-10.33852-24.2043-16.055113-38.678228-16.055113zM905.654353 930.95332c0 16.663262-13.500891 30.164153-30.164152 30.164152H147.780021c-16.663262 0-30.164153-13.500891-30.164152-30.164152V376.565388c0-16.663262 13.500891-30.164153 30.164152-30.164153h727.71018c16.663262 0 30.164153 13.500891 30.164152 30.164153v554.387932z m0 0" fill="#040000" p-id="12162"></path><path d="M513.155482 482.139922c-29.799264 41.962228-65.923269 79.059271-107.03409 109.831571-22.501485 16.906521-46.462525 31.623708-71.639862 44.151562-13.257632 6.689631-22.866374 10.095261-28.947856 10.095261-6.81126 0-11.919705-2.554223-15.325336-7.905927-1.702815-2.432593-2.554223-5.230075-2.554222-8.149187 0-7.419408 7.297779-14.838817 22.014966-22.258225 73.221048-36.002376 131.968167-86.23542 176.119729-150.699133 11.676446-17.028151 21.163559-25.542226 28.461337-25.542226 4.013778 0 7.419408 1.459556 10.46015 4.500297 3.52726 3.40563 5.351704 8.027557 5.230075 12.892743 0 0.973037-0.12163 1.946074-0.243259 2.919111 7.05452 7.05452 12.284594 12.406224 15.690224 16.055114 30.164153 31.01556 57.774082 55.706378 82.95142 73.829195 15.568595 11.189928 30.772301 20.79867 45.367858 28.947856 2.554223 1.459556 20.190521 10.46015 52.787267 27.001782 13.74415 7.176149 20.55541 14.960447 20.55541 23.231263 0.12163 4.865186-1.946074 9.608742-5.473334 12.892742-3.648889 3.52726-8.514075 5.473334-13.62252 5.230075-9.122224 0-30.042523-9.608742-62.760898-28.947856-50.354674-29.556004-101.074237-72.24801-152.037059-128.076018z m119.926832 226.231143H358.5642c-4.743556 0.12163-9.365483-1.581185-12.892743-4.743556-3.52726-2.919112-5.473334-7.297779-5.473334-11.919705 0-4.500297 1.702815-8.392446 5.230075-11.919706 3.40563-3.52726 8.149186-5.594964 13.136002-5.473334h303.34434c20.55541 0 30.772301 7.784297 30.772301 23.352892 0 15.446965-11.919705 39.043117-35.637487 70.910085-26.028745 34.54282-58.50386 63.733935-95.479273 85.99216-28.947856 17.636299-49.260007 26.515263-60.936453 26.515264-4.500297 0.243259-8.878964-1.581185-11.919705-4.743557-3.162371-3.162371-4.865186-7.419408-4.743557-11.919705 0-8.635705 6.568001-15.568595 19.582374-21.041929 45.246229-18.974225 82.221642-44.75971 110.804608-77.356456 9.000594-10.46015 17.27141-21.528448 24.569189-33.204893 5.594964-8.635705 8.392446-14.960447 8.392446-18.852596 0.12163-3.770519-4.621927-5.594964-14.230669-5.594964zM479.707329 554.023043c6.81126-0.486519 16.663262 4.500297 29.312745 14.838817 31.745338 26.150374 50.962822 43.056895 57.530823 50.962822 6.689631 7.784297 10.095261 13.987409 10.095261 18.609336 0 5.108445-2.310963 9.973631-6.203113 13.136002-3.162371 2.797482-7.176149 4.378667-11.433186 4.378667-5.230075 0-11.554816-4.013778-18.852596-11.919705-6.446371-6.324742-13.014372-12.527854-19.825632-18.366077l-20.068892-18.122817c-7.419408-6.689631-14.838817-13.257632-22.379855-19.582373-8.270816-6.81126-12.406224-13.014372-12.406224-18.609336-0.12163-9.730372 4.743556-14.717187 14.230669-15.325336z m0 0" fill="#040000" p-id="12163"></path></svg>