<?xml version="1.0" standalone="no"?><!DOCTYPE svg PUBLIC "-//W3C//DTD SVG 1.1//EN" "http://www.w3.org/Graphics/SVG/1.1/DTD/svg11.dtd"><svg t="1564566032411" class="icon" viewBox="0 0 1448 1024" version="1.1" xmlns="http://www.w3.org/2000/svg" p-id="9291" xmlns:xlink="http://www.w3.org/1999/xlink" width="282.8125" height="200"><defs><style type="text/css"></style></defs><path d="M618.019637 512m-512 0a512 512 0 1 0 1024 0 512 512 0 1 0-1024 0Z" fill="#A282BA" p-id="9292"></path><path d="M825.49336 588.250049H635.716302V413.409578h75.699581v49.443149h38.41574v-49.443149h75.662597v174.840471z m0 0M596.608177 588.250049H406.831119V413.409578h75.735706v49.443149h38.341771v-49.443149h75.699581v174.840471z m0 0M825.49336 793.035943H635.716302V618.270302h75.699581v49.438848h38.41574V618.270302h75.662597v174.765641z m0 0" fill="#FFFFFF" p-id="9293"></path><path d="M596.608177 793.035943H406.831119V618.270302h75.735706v49.438848h38.341771V618.270302h75.699581v174.765641z m0 0M301.810551 377.584475v65.220059L614.832087 300.994685l318.748977 141.809849v-61.638581L617.7143 231.447436 301.810551 377.584475z m0 0" fill="#FFFFFF" p-id="9294"></path></svg>