<?xml version="1.0" standalone="no"?><!DOCTYPE svg PUBLIC "-//W3C//DTD SVG 1.1//EN" "http://www.w3.org/Graphics/SVG/1.1/DTD/svg11.dtd"><svg t="1564569597951" class="icon" viewBox="0 0 1024 1024" version="1.1" xmlns="http://www.w3.org/2000/svg" p-id="10811" xmlns:xlink="http://www.w3.org/1999/xlink" width="200" height="200"><defs><style type="text/css"></style></defs><path d="M1008.64 513.536c0 272.896-221.184 494.08-494.08 494.08C241.664 1007.104 20.48 786.432 20.48 513.536S241.664 19.456 514.56 19.456 1008.64 240.64 1008.64 513.536" fill="#FFFFFF" p-id="10812"></path><path d="M958.464 612.352c-19.456 86.016-62.976 162.304-122.88 222.72-82.944 82.944-197.12 134.144-323.584 134.144-126.464 0-241.152-51.2-323.584-134.144-32.256-32.256-59.392-68.608-80.896-109.568 6.144 0.512 12.288 1.024 18.944 1.024 19.968 35.328 45.056 68.096 73.216 96.768 79.872 79.872 190.464 129.024 312.32 129.024 121.856 0 232.448-49.664 312.32-129.024 57.344-57.856 99.328-131.072 118.272-212.992-2.048-0.512-4.096-0.512-6.144-1.024-18.944 80.896-59.904 153.088-116.224 209.408-78.848 78.848-187.904 127.488-308.224 127.488s-229.376-48.64-308.224-127.488c-27.136-27.136-51.2-58.368-70.656-92.16h4.608c18.944 32.768 41.984 62.976 68.608 89.6 78.336 78.336 186.368 126.464 305.152 126.464 119.296 0 227.328-48.64 305.152-126.464 56.32-56.32 96.768-127.488 115.2-207.36-41.984-4.608-83.968-5.632-127.488-3.072-88.064 5.632-172.544 26.112-258.048 47.104-95.232 23.552-189.44 46.08-287.232 55.296-54.272 4.608-107.52 5.632-160.256 1.024l-2.56-5.12c167.936 10.24 306.176-27.136 446.464-65.024 132.096-35.328 264.192-65.536 420.352-45.056l-4.608 18.432zM480.256 377.856c140.288-37.888 278.528-69.632 446.464-59.392l-2.56-5.12c-52.736-4.096-105.984-3.584-160.256 1.024-97.792 9.216-192 31.232-287.232 55.296-85.504 20.992-169.984 41.472-258.048 47.104-43.52 2.56-86.016 2.048-127.488-2.56 18.432-79.872 59.392-151.552 115.2-207.36C284.672 128.512 392.704 80.384 512 80.384c119.296 0 227.328 48.64 305.152 126.464 27.648 27.648 51.712 58.88 71.168 93.184h4.608c-19.968-35.328-44.544-68.096-72.704-96.256-78.848-78.848-187.904-127.488-308.224-127.488s-229.376 48.64-308.224 127.488c-55.808 56.32-97.28 128.512-115.712 209.408-2.048-0.512-4.096-0.512-6.144-1.024 18.944-82.432 60.416-155.648 118.272-213.504 79.872-79.872 190.464-129.024 312.32-129.024 121.856 0 232.448 49.664 312.32 129.024 29.696 29.696 55.296 63.488 75.776 101.376 6.144 0.512 12.288 1.024 18.432 1.024-22.016-41.984-50.176-79.872-82.944-113.152-82.944-82.944-197.12-134.144-323.584-134.144-126.464 0-241.152 51.2-323.584 134.144a458.01984 458.01984 0 0 0-122.88 222.72l-5.632 18.432c1.024 0 1.024 0 2.048 0.512 5.632 1.024 10.752 1.024 15.872 2.048 147.968 14.336 274.944-19.968 401.92-53.76m-163.328 338.432c50.688 48.128 119.296 77.824 194.56 77.824 115.712 0 216.064-70.144 259.072-169.984l-12.288 1.536c-43.008 93.184-137.216 158.208-247.296 158.208-69.632 0-132.608-26.112-181.248-69.12-3.072 0.512-7.68 1.024-12.8 1.536M706.56 306.176c-50.688-48.128-119.296-77.824-194.56-77.824-115.712 0-216.064 70.144-259.072 169.984l12.288-1.536c43.008-93.184 137.216-158.208 247.296-158.208 69.632 0 132.608 26.112 180.736 69.12 4.096-0.512 8.704-0.512 13.312-1.536m-33.792 5.12v-1.024c-3.072-2.56-6.144-4.608-9.216-7.168V312.32c3.072 0 6.144 0 9.216-1.024M359.936 381.44V303.616c-3.072 2.56-6.144 4.608-9.216 7.168v72.704c3.584-1.024 6.656-1.536 9.216-2.048m48.64-10.752V275.968c-3.072 1.536-6.144 2.56-9.216 4.096v92.672c3.072-0.512 6.144-1.536 9.216-2.048m-120.32 13.824c-2.048 3.584-4.096 7.168-5.632 10.752 2.048-0.512 4.096-0.512 5.632-1.024v-9.728z m143.872-19.456V266.752l-9.216 3.072v97.28c3.072-0.512 6.144-1.536 9.216-2.048m216.576-49.664v-22.016c-3.072-2.048-6.144-4.096-9.216-5.632V317.44c3.072-0.512 6.144-1.024 9.216-2.048M312.32 390.656v-40.96l-9.216 12.288v30.208c2.56-1.024 5.632-1.024 9.216-1.536m24.064-4.608V323.584c-3.072 3.072-6.144 5.632-9.216 9.216v55.296c3.072-1.024 6.144-1.536 9.216-2.048m240.64-55.808V262.656c-3.072-1.024-6.144-1.536-9.216-2.56v72.192c2.56-0.512 5.632-1.024 9.216-2.048m23.552-4.608V269.824c-3.072-1.024-6.144-2.56-9.216-3.072v60.416c3.072-0.512 6.144-1.536 9.216-1.536m-143.872 33.28V260.096c-3.072 1.024-6.144 1.536-9.216 2.56v98.816c3.072-1.024 6.144-1.536 9.216-2.56m95.744-23.04V257.536c-3.072-0.512-6.144-1.024-9.216-1.024v81.92c3.072-1.024 6.144-1.536 9.216-2.56m72.192-15.36v-39.936c-3.072-1.536-6.144-3.072-9.216-4.096v46.08c3.072-1.024 6.144-1.536 9.216-2.048m-96.256 20.992v-87.04c-3.072-0.512-6.144-0.512-9.216-0.512v89.6c3.584-0.512 6.144-1.536 9.216-2.048m-54.784 13.312l7.168-1.536V256.512c-3.072 0.512-6.144 1.024-9.216 1.024v97.792l2.048-0.512z m31.232-7.68V254.464c-3.072 0-6.144 0.512-9.216 0.512v94.72c2.56-1.024 5.632-1.536 9.216-2.56m-120.32 29.184V288.256c-3.072 2.048-6.144 3.584-9.216 5.632v84.48c2.56-1.024 6.144-1.536 9.216-2.048m230.912 275.456v94.72c3.072-1.536 6.144-2.56 9.216-4.096v-92.672c-3.072 1.024-6.144 1.536-9.216 2.048m24.064-5.632v88.064c3.072-2.048 6.144-3.584 9.216-5.632v-84.48c-3.072 1.024-6.144 2.048-9.216 2.048m24.064-5.12v77.824c3.072-2.56 6.144-4.608 9.216-7.168v-72.192c-3.072 0.512-6.144 1.536-9.216 1.536m-72.192 16.384v97.792l9.216-3.072v-97.28c-3.072 1.024-6.144 2.048-9.216 2.56m96.256-20.992v62.464c3.072-3.072 6.144-5.632 9.216-9.216V634.88l-9.216 1.536m-120.32 27.136v98.816c3.072-1.024 6.144-1.536 9.216-2.56v-98.816c-3.072 1.024-6.144 1.536-9.216 2.56m168.448-25.6c2.048-3.584 4.096-7.168 5.632-10.752-2.048 0.512-4.096 0.512-5.632 1.024v9.728z m-24.064-5.632v40.96l9.216-12.288v-30.208c-3.072 0.512-6.144 0.512-9.216 1.536m-192.512 43.008V768c3.072 0 6.144-0.512 9.216-0.512v-94.72c-3.072 1.024-5.632 1.536-9.216 2.56m-72.192 16.896v68.096c3.072 1.024 6.144 1.536 9.216 2.56v-72.192c-2.56 0-5.632 1.024-9.216 1.536m-24.064 5.12V752.64c3.072 1.024 6.144 2.56 9.216 3.072v-59.904c-3.072 0-6.144 1.024-9.216 1.536m-23.552 4.608v40.448c3.072 1.536 6.144 3.072 9.216 4.096v-46.08c-3.072 0.512-6.144 1.536-9.216 1.536m-24.576 5.12v22.016c3.072 2.048 6.144 4.096 9.216 5.632v-29.184c-2.56 0-6.144 1.024-9.216 1.536m-23.552 4.096v1.024c3.072 2.56 6.144 4.608 9.216 7.168v-9.216c-3.072 0-6.144 0.512-9.216 1.024m199.168-43.52l-7.168 1.536v97.28c3.072-0.512 6.144-1.024 9.216-1.024v-97.792h-2.048zM495.104 680.96v86.528c3.072 0 6.144 0.512 9.216 0.512v-89.6c-3.072 1.024-6.144 2.048-9.216 2.56m-24.064 5.632v78.336c3.072 0.512 6.144 1.024 9.216 1.024v-81.92c-3.072 1.536-6.144 1.536-9.216 2.56M1008.64 512c0 273.92-222.72 496.64-496.64 496.64S15.36 785.92 15.36 512 238.08 15.36 512 15.36s496.64 222.72 496.64 496.64m-10.752 0c0-268.8-217.6-485.888-485.888-485.888C243.2 26.112 26.112 243.2 26.112 512c0 268.8 217.6 485.888 485.888 485.888 268.288 0 485.888-217.088 485.888-485.888" fill="#FFAE26" p-id="10813"></path><path d="M358.912 498.688c12.8-0.512 26.624-3.072 41.472-9.216 0 0.512 0.512 1.024 1.024 1.024-2.56 12.288-9.728 18.432-22.016 17.92-19.456-1.024-43.52 0.512-72.192 4.096v26.624c0.512 7.68 1.024 12.8 1.024 15.36 1.024 1.024 14.336 0 39.424-3.584 11.776-1.536 20.48-2.56 24.576-3.584 5.12 0 8.704 2.048 9.728 6.144-1.024 4.096-4.096 6.656-9.728 7.68-22.528 0.512-43.008 2.048-62.464 5.12 0 1.536 1.024 8.704 2.56 20.48 1.024 9.728 2.048 16.896 2.56 21.504-0.512 5.632-4.096 9.728-9.728 11.264-3.584-0.512-5.12-2.56-5.632-7.168-0.512-17.408-1.536-34.816-2.048-52.224-1.024-17.92-2.56-32.256-3.072-43.52-2.56-1.536-8.192-1.024-16.896 2.048-1.024 0-1.536-0.512-1.024-1.536 0-7.68 4.608-12.288 14.336-14.848 0.512 0 3.072 0 7.68 0.512 11.776-1.024 31.744-2.048 60.416-4.096M455.68 562.688c-4.096 18.944-7.68 31.232-9.728 37.376-0.512 3.072-2.048 4.608-5.12 5.632-5.632 1.536-10.752 1.536-14.848-0.512-1.536-1.024-1.536-2.048-0.512-3.584 16.896-29.184 29.184-65.536 37.376-109.568 0-1.024-0.512-3.072 0-5.12-0.512-2.048-0.512-4.096-0.512-6.144 4.608-9.216 11.264-10.752 19.968-4.096 1.024 4.608 3.072 8.704 6.144 11.776 14.848 22.528 27.136 39.424 36.864 50.176 7.168-1.536 13.312-4.096 18.432-8.192 0 0.512 0.512 1.024 1.024 0.512-1.536 7.68-4.608 14.336-10.24 18.944 8.192 10.752 17.408 17.92 28.16 22.016 1.024 1.024 1.024 2.048 0.512 2.56-3.584 4.096-9.728 7.68-17.408 9.728h-1.024c-2.048 0.512-4.096-0.512-5.12-2.56-6.656-6.656-14.336-17.408-23.552-32.256-20.48 2.048-40.448 6.144-60.416 13.312m54.272-22.016c-4.096-4.608-10.24-13.312-18.944-27.136-8.704-12.8-13.824-20.992-15.872-25.088-2.56-0.512-3.584-0.512-3.584 0.512-5.632 29.184-10.752 49.664-14.336 61.952 7.168-0.512 14.848-1.536 24.064-3.072 9.216-1.024 18.432-3.584 28.672-7.168M551.936 460.288c-1.536-1.536-1.536-3.072 0-5.632 3.072-2.048 8.192-4.608 15.872-7.68 0 0.512 1.024 1.024 3.072 1.024v3.584c3.584 26.624 8.704 48.128 14.848 64.512 2.56 7.168 6.144 14.848 9.728 24.064 3.072 8.192 5.12 12.8 6.144 14.336 1.024 6.144-0.512 10.752-4.608 13.824-5.12 1.024-9.216-2.048-12.288-8.704-0.512-1.024-0.512-2.56-1.024-4.096-3.584-16.896-6.144-29.184-8.704-36.864-7.68-23.552-15.36-43.008-23.04-58.368M605.696 440.832c-1.024-1.536-1.024-2.56 1.024-4.096 6.144-3.072 12.288-4.608 17.92-4.608 1.536 2.048 2.56 3.584 3.072 5.12 1.024 8.192 4.608 21.504 11.264 38.912 7.168 19.456 15.36 36.864 23.552 52.736 14.336-3.072 31.744-10.24 53.248-19.968 17.92-8.704 31.744-16.896 40.96-25.088 1.536 0.512 2.56 1.024 2.56 1.536-0.512 15.36-5.12 24.576-13.824 28.16-5.632 2.56-13.824 5.12-24.576 8.192-19.968 5.12-35.328 10.24-46.08 14.336-6.656 3.584-15.36 8.192-25.6 15.36-3.584 3.072-6.656 4.608-8.704 5.632-1.024 0.512-1.536 0-1.536-1.024-1.536-8.704 2.048-15.872 10.752-20.992-8.704-22.528-16.384-41.472-23.552-57.344-7.68-15.36-14.336-27.648-20.48-36.864" fill="#FFAE26" p-id="10814"></path></svg>