<?xml version="1.0" standalone="no"?><!DOCTYPE svg PUBLIC "-//W3C//DTD SVG 1.1//EN" "http://www.w3.org/Graphics/SVG/1.1/DTD/svg11.dtd"><svg t="1564566807472" class="icon" viewBox="0 0 1024 1024" version="1.1" xmlns="http://www.w3.org/2000/svg" p-id="15400" xmlns:xlink="http://www.w3.org/1999/xlink" width="200" height="200"><defs><style type="text/css"></style></defs><path d="M545.28 276.48c-10.24-5.12-15.36-10.24-23.04-15.36-10.24-5.12-17.92-5.12-28.16-5.12-10.24 0-17.92 0-28.16 5.12-5.12 5.12-15.36 10.24-17.92 15.36-10.24 10.24-15.36 15.36-15.36 23.04-5.12 10.24-5.12 17.92-5.12 28.16 0 10.24 0 17.92 5.12 28.16 0 5.12 5.12 15.36 15.36 17.92 5.12 5.12 15.36 10.24 23.04 15.36 10.24 5.12 17.92 5.12 28.16 5.12 10.24 0 17.92 0 28.16-5.12s15.36-10.24 23.04-15.36c5.12-5.12 10.24-15.36 15.36-23.04 5.12-10.24 5.12-17.92 5.12-28.16 0-10.24 0-17.92-5.12-28.16-10.24-2.56-15.36-7.68-20.48-17.92z m148.48 202.24c-5.12-5.12-10.24-5.12-10.24-10.24-5.12 0-10.24-5.12-15.36-5.12-5.12 0-10.24 0-15.36 5.12-5.12 0-10.24 5.12-10.24 10.24-5.12 5.12-5.12 10.24-10.24 10.24 0 5.12-5.12 10.24-5.12 15.36 0 5.12 0 10.24 5.12 15.36 0 5.12 5.12 10.24 10.24 10.24 5.12 5.12 10.24 5.12 10.24 10.24 5.12 0 10.24 5.12 15.36 5.12 5.12 0 10.24 0 15.36-5.12 5.12 0 10.24-5.12 10.24-10.24 5.12-5.12 5.12-10.24 10.24-10.24 0-5.12 5.12-10.24 5.12-15.36s0-10.24-5.12-15.36c-5.12 0-5.12-5.12-10.24-10.24z" fill="#148AF4" p-id="15401"></path><path d="M670.72 166.4c-104.96-53.76-202.24-53.76-296.96 10.24-71.68 53.76-99.84 176.64-99.84 192 0 15.36 17.92 38.4-28.16 71.68s-53.76 23.04-48.64 48.64c5.12 15.36 17.92 23.04 23.04 33.28s15.36 17.92 5.12 28.16c-10.24 0-17.92 5.12-15.36 17.92 10.24 20.48 28.16 20.48 38.4 20.48 5.12 0-17.92-5.12-28.16 0s-20.48 20.48-15.36 28.16c5.12 10.24 17.92 10.24 17.92 15.36 5.12 5.12 5.12 15.36 5.12 17.92 0 15.36-10.24 28.16-15.36 48.64-5.12 15.36 5.12 48.64 38.4 56.32 33.28 10.24 48.64 5.12 76.8 10.24 48.64 5.12 81.92 71.68 87.04 130.56h99.84c66.56 0 133.12-17.92 192-48.64-28.16-168.96 61.44-181.76 110.08-340.48 17.92-61.44 46.08-253.44-145.92-340.48z m-92.16 245.76c-5.12 10.24-10.24 15.36-10.24 17.92 0 5.12 0 15.36 5.12 17.92v15.36l-5.12 5.12c-5.12 0-5.12 5.12-10.24 5.12s-5.12 5.12-10.24 5.12h-15.36c-10.24 0-10.24-5.12-10.24-5.12 0-10.24-5.12-15.36-15.36-17.92-5.12-5.12-10.24-5.12-17.92-5.12-5.12 0-15.36 0-17.92 5.12-5.12 5.12-10.24 10.24-10.24 17.92 0 5.12-5.12 5.12-5.12 5.12h-15.36c-10.24 0-15.36-5.12-17.92-5.12-5.12 0-10.24-5.12-10.24-5.12 0-5.12-5.12-5.12-5.12-5.12v-5.12s0-5.12 5.12-10.24c0-5.12 5.12-10.24 5.12-17.92 0-5.12-5.12-15.36-10.24-17.92-10.24 0-10.24-5.12-15.36-5.12h-15.36c-5.12 0-10.24 0-15.36 5.12H358.4l-5.12-5.12c0-5.12-5.12-5.12-5.12-10.24s-5.12-10.24-5.12-10.24v-10.24c0-5.12 5.12-10.24 5.12-10.24 5.12-5.12 15.36-5.12 17.92-15.36 5.12-5.12 10.24-15.36 10.24-17.92 0-10.24-5.12-15.36-10.24-17.92-5.12-15.36-15.36-17.92-17.92-17.92 0 0-5.12 0-5.12-5.12v-17.92c0-5.12 0-5.12 5.12-10.24 0-5.12 5.12-5.12 5.12-10.24s5.12-5.12 5.12-5.12h10.24c5.12 5.12 15.36 5.12 17.92 5.12s15.36-5.12 17.92-10.24c5.12-5.12 5.12-5.12 5.12-10.24V199.68c0-5.12 5.12-5.12 5.12-10.24 10.24-5.12 15.36-10.24 15.36-10.24 5.12 0 10.24-5.12 10.24-5.12h10.24c5.12 0 5.12 0 5.12 5.12l5.12 5.12c0 5.12 5.12 10.24 10.24 15.36 10.24 5.12 17.92 10.24 23.04 10.24 10.24 0 15.36 0 17.92-5.12s10.24-15.36 15.36-17.92c0 0 0-5.12 5.12-5.12 0-5.12 5.12-5.12 5.12-5.12h10.24c5.12 0 5.12 0 10.24 5.12 5.12 0 5.12 5.12 10.24 5.12s5.12 5.12 5.12 10.24v28.16c0 5.12 5.12 15.36 10.24 17.92 5.12 5.12 10.24 10.24 17.92 10.24s15.36 0 17.92-5.12h5.12s5.12 0 5.12 5.12c5.12 5.12 5.12 10.24 10.24 15.36 5.12 5.12 5.12 15.36 5.12 17.92v10.24l-5.12 5.12c-5.12 0-15.36 5.12-17.92 15.36-5.12 10.24-5.12 5.12-5.12 15.36 0 10.24 0 15.36 5.12 17.92 5.12 5.12 10.24 10.24 15.36 10.24 0 0 5.12 0 5.12 5.12 0 0 5.12 5.12 5.12 10.24v10.24c0 5.12 0 10.24-5.12 10.24 0 5.12-5.12 10.24-5.12 10.24 0 5.12-5.12 5.12-5.12 5.12H588.8c-5.12-5.12-10.24 0-10.24 0z m158.72 104.96c0 5.12 5.12 5.12 10.24 5.12l5.12 5.12v10.24s0 5.12-5.12 5.12l-5.12 2.56h-23.04s-5.12 0-5.12 5.12c-5.12 5.12-5.12 10.24-5.12 10.24v15.36l-5.12 5.12s-5.12 0-5.12 5.12-5.12 0-5.12 0h-10.24v-5.12c0-5.12-5.12-5.12-5.12-10.24h-10.24c-5.12 0-10.24 0-10.24 5.12-5.12 5.12-5.12 5.12-5.12 10.24l-2.56 2.56h-15.36s-5.12 0-5.12-5.12c0 0-5.12 0-5.12-5.12v-17.92c0-5.12 0-5.12-5.12-10.24l-5.12-5.12h-17.92s-5.12 0-5.12-5.12c0 0 0-5.12-5.12-5.12v-10.24c0-5.12 0-5.12 5.12-5.12s5.12-5.12 10.24-5.12v-10.24c0-5.12 0-10.24-5.12-10.24s-5.12-5.12-5.12-10.24H588.8c-5.12-5.12 0-5.12 0-5.12v-10.24s0-5.12 5.12-5.12c0 0 0-5.12 5.12-5.12h17.92c0 5.12 5.12 5.12 5.12 0 0 0 0-5.12 5.12-5.12v-23.04s0-5.12 5.12-5.12c0 0 5.12 0 5.12-5.12h15.36v5.12c0 5.12 5.12 5.12 5.12 10.24 5.12 0 5.12 5.12 10.24 5.12s10.24 0 10.24-5.12c5.12 0 5.12-5.12 5.12-10.24v-5.12h15.36s5.12 0 5.12 5.12l5.12 5.12v15.36c0 5.12 0 5.12 5.12 10.24 10.24 10.24 10.24 15.36 15.36 15.36h12.8s5.12 5.12 5.12 10.24 0 5.12 5.12 10.24v5.12h-5.12c-5.12 0-5.12 5.12-10.24 5.12-5.12 5.12-5.12 5.12-5.12 10.24l5.12 5.12z" fill="#148AF4" p-id="15402"></path></svg>