<?xml version="1.0" standalone="no"?><!DOCTYPE svg PUBLIC "-//W3C//DTD SVG 1.1//EN" "http://www.w3.org/Graphics/SVG/1.1/DTD/svg11.dtd"><svg t="1564569550341" class="icon" viewBox="0 0 1024 1024" version="1.1" xmlns="http://www.w3.org/2000/svg" p-id="10079" xmlns:xlink="http://www.w3.org/1999/xlink" width="200" height="200"><defs><style type="text/css"></style></defs><path d="M356.375 278.26l16.565-13.43 21.704 1.605-8.306-19.133 8.306-19.141-21.704 1.604-16.565-13.433-5.107 20.125-18.554 10.838 18.554 10.836 5.107 20.128z m301.807-22.829l15.348 15.429 6.258-19.897 18.817-9.02-17.448-13.01-3.726-21.003-17.036 11.87-21.115-3.971 6.915 20.34-9.33 18.554 21.317 0.708z m-169.15-24.223l20.522-5.81 19.314 10.037-0.088-20.866 15.186-14.31-20.576-7.089-9.93-18.878-12.625 16.482-21.323 2.647 12.771 17.27-3.251 20.517zM265.585 355.824l14.61 14.755 7.47-19.973 19.519-9.628-16.859-12.275-2.556-20.717-17.886 12.393-21.088-3.176 5.795 19.936-10.483 18.754 21.478-0.069z m406.423 407.002l-16.434 13.397-21.527-1.598 8.24 19.09-8.24 19.097 21.527-1.597 16.434 13.4 5.064-20.085 18.395-10.815-18.395-10.805-5.064-20.084z m-131.42 36.646l-20.357 5.794-19.154-10.011 0.086 20.81-15.062 14.285 20.406 7.066 9.85 18.833 12.53-16.449 21.144-2.627-12.668-17.242 3.224-20.459z m-158.726-23.536l-15.196-15.365-6.256 19.849-18.686 9.018 17.295 12.942 3.643 20.937 16.939-11.853 20.947 3.924-6.82-20.268 9.286-18.514-21.152-0.67z" fill="" p-id="10080"></path><path d="M512.002 63.354C264.516 63.354 63.17 264.698 63.17 512.18 63.17 759.667 264.516 961.01 512 961.01c247.486 0 448.827-201.343 448.827-448.829 0-247.483-201.344-448.827-448.826-448.827z m0 867.858c-231.056 0-419.032-187.977-419.032-419.031 0-231.052 187.976-419.03 419.032-419.03 231.053 0 419.028 187.978 419.028 419.03 0 231.054-187.976 419.03-419.028 419.03z" fill="" p-id="10081"></path><path d="M512.002 135.814c-207.53 0-376.368 168.839-376.368 376.367 0 207.53 168.837 376.368 376.368 376.368S888.368 719.712 888.368 512.18c0-207.528-168.837-376.367-376.366-376.367z m0 735.708c-198.141 0-359.343-161.2-359.343-359.341 0-198.14 161.2-359.34 359.343-359.34 198.14 0 359.341 161.2 359.341 359.34 0 73.683-22.305 142.247-60.499 199.322l-7.064-19.198 9.047-19.39-21.247 1.567-15.49-13.662-5.987 20.405-18.631 10.946 17.55 11.038L773 723.637l16.828-13.582 20.875 1.66c-64.532 96.29-174.334 159.807-298.7 159.807z" fill="" p-id="10082"></path><path d="M659.954 331.656c-41.558-34.105-94.104-52.886-147.953-52.886-111.909 0-208.324 79.67-229.259 189.437L297.378 471c19.595-102.754 109.855-177.332 214.623-177.332 50.411 0 99.598 17.58 138.506 49.505l9.447-11.517z m-147.952 399.04c-50.414 0-99.602-17.582-138.51-49.507l-9.449 11.517c41.56 34.105 94.108 52.888 147.959 52.888 111.904 0 208.32-79.672 229.256-189.44l-14.636-2.79c-19.596 102.752-109.857 177.331-214.62 177.331zM466.978 457.468c3.049-0.876 5.325 0.01 6.82 2.667 0.745 3.102-0.28 5.427-3.069 6.974l-69.702 27.115a600.227 600.227 0 0 0 13.417 24.383c11.585 19.082 24.342 35.628 38.272 49.635a75.086 75.086 0 0 0 7.176 7.152 73.334 73.334 0 0 0 1.964-8.627c3.573-19.736 3.18-41.167-1.19-64.29-0.93-3.184-0.04-5.456 2.667-6.82 3.669-1.272 6.26-0.354 7.78 2.756 4.91 27.689 5.614 50.698 2.105 69.021-0.99 5.785-2.294 11.15-3.916 16.092a266.477 266.477 0 0 0 12.957 9.532c8.407 5.364 16.109 9.306 23.102 11.825 2.95 0.853 5.098 1.022 6.438 0.501 2.01-0.78 3.063-2.426 3.169-4.93-0.142-13.05-2.225-25.73-6.242-38.044-0.931-3.183-0.175-5.403 2.265-6.664 4.07-1.427 6.9-0.29 8.493 3.405 5.575 17.105 8.332 31.526 8.274 43.266-0.234 7.335-3.694 12.305-10.39 14.909-3.615 1.407-9.174 0.792-16.673-1.84-12.677-5.245-24.313-11.97-34.909-20.184-2 5.56-4.292 10.769-6.873 15.624-6.072 12.537-13.471 24.818-22.205 36.854a28.06 28.06 0 0 1-3.906 2.442c-3.207 0.476-5.734-0.467-7.578-2.833-0.834-2.144-0.565-4.022 0.814-5.634 7.267-9.457 13.928-19.678 19.983-30.67 4.122-6.842 7.597-14.749 10.433-23.716a36.509 36.509 0 0 0-2.065-1.74c-13.706-12.245-26.492-27.081-38.36-44.514-8.24-12.057-16.72-26.335-25.449-42.83l-66.085 25.708c-6.297 2.45-8.19 6.888-5.69 13.316l13.127 33.747 44.795-17.426c9.239-3.595 15.605-0.904 19.095 8.066 5.313 13.658 9.16 25.73 11.543 36.213 3.155 13.265 3.657 22.477 1.497 27.63-2.514 6.222-7.054 10.607-13.613 13.159-4.821 1.875-11.313 2.63-19.474 2.256-3.446 0.264-5.77-0.761-6.975-3.067-1.296-4.122-0.187-7.018 3.324-8.696 0.67-0.26 1.55-0.37 2.645-0.333 7.975 0.29 13.369-0.114 16.182-1.208 3.213-1.25 5.397-3.563 6.55-6.942 1.28-2.655 1.066-8.353-0.638-17.096-1.408-9.168-4.688-20.38-9.846-33.637-2.083-5.355-5.805-6.992-11.16-4.91l-40.174 15.628 0.86 2.211c5.73 14.733 10.82 32.179 15.273 52.337 2.5 14.753 3.877 28.4 4.132 40.944 0.028 2.454-1.336 4.297-4.095 5.524-3.319 0.98-5.75-0.306-7.288-3.871-1.118-19.915-2.89-35.569-5.315-46.958-4.289-17.759-8.67-32.396-13.15-43.913L306.72 537.15c-3.907-10.046-0.84-17.017 9.206-20.926l69.9-27.191a831.933 831.933 0 0 1-13.115-26.582c-0.664-3.286 0.413-5.48 3.225-6.573 3.236-0.798 5.71 0.016 7.422 2.432a500.51 500.51 0 0 0 12.714 26.738l70.905-27.58z m-55.007-11.21c1.472-0.574 3.288-0.662 5.445-0.27 6.1 1.02 11.267 2.017 15.501 2.99a283.808 283.808 0 0 1 14.162 4.898c1.108 1.267 1.925 2.57 2.445 3.906 0.823 2.917-0.115 5.057-2.824 6.417-2.144 0.835-4.128 0.68-5.958-0.458-4.495-1.642-8.79-2.976-12.89-4.004-3.78-0.994-8.628-1.965-14.542-2.9-2.574-1.463-4.148-2.933-4.722-4.409-0.349-2.482 0.781-4.54 3.383-6.17z m141.75-27.389c3.131-1.063 5.455-0.041 6.975 3.068 0.877 3.051-0.196 5.244-3.224 6.573l-22.296 8.673 37.819 97.22a61.126 61.126 0 0 0 2.231-3.18 178.507 178.507 0 0 0 15.978-26.104c0.707-1.352 1.503-2.28 2.39-2.778 2.995-1.012 5.218-0.256 6.66 2.263 0.804 2.463 0.742 4.88-0.188 7.242-5.305 10.544-11.98 20.929-20.029 31.15-8.593 11.207-18.516 22.16-29.77 32.858-2.123 1.288-3.69 2.208-4.71 2.756-2.566 0.537-4.39-0.373-5.457-2.733-1.146-2.943-0.577-5.247 1.705-6.908 9.618-9.754 17.29-17.978 23.01-24.677l-40.084-103.045-24.106 9.376c-3.264 1.12-5.54 0.23-6.818-2.666-1.118-3.266-0.092-5.589 3.069-6.975l56.845-22.113z m25.465 3.042l31.336-12.19c-3.582-10.782-7.687-22.137-12.324-34.057-0.962-2.862-0.02-5 2.823-6.418 3.747-1.457 6.29-0.672 7.624 2.356 4.688 12.051 8.794 23.406 12.324 34.057l36.155-14.064c12.721-4.948 21.61-0.926 26.663 12.061 17.143 46.06 27.883 79.81 32.217 101.25 3.393 13.481 3.06 22.936-0.991 28.368-2.805 5.868-7.957 10.263-15.456 13.18-10.044 3.906-23.424 6.57-40.14 7.983-2.427-0.293-4.19-1.455-5.291-3.491-1.223-3.535-0.05-6.072 3.515-7.61l1.607-0.625c16.26-1.395 28.344-3.627 36.245-6.701 4.553-1.77 7.606-4.426 9.162-7.957 2.141-3.609 2.587-8.408 1.338-14.397-1.117-8.816-4.475-22-10.07-39.56-7.107-24.216-14.463-46.099-22.068-65.653-2.709-6.961-7.548-9.09-14.51-6.382l-35.152 13.675c3.006 9.317 5.497 18.291 7.468 26.927a262.202 262.202 0 0 1 6.879 46.814c0.508 16.764-1.222 31.545-5.185 44.337-4.457 13.915-10.562 27.156-18.31 39.73-1.268 1.107-3.036 2.107-5.31 2.991-2.942 0.371-5.214-0.514-6.82-2.667-1.223-3.535-0.65-6.223 1.718-8.068 7.239-11.912 12.74-23.92 16.513-36.025 3.42-11.813 5.338-22.736 5.755-32.765 0.349-14.164-1.501-30.018-5.552-47.563-2.1-9.357-4.699-19.217-7.803-29.572l-30.531 11.877c-3.395 0.395-5.693-0.561-6.898-2.868-0.772-2.777 0.25-5.102 3.07-6.973z" fill="" p-id="10083"></path></svg>