<?xml version="1.0" standalone="no"?><!DOCTYPE svg PUBLIC "-//W3C//DTD SVG 1.1//EN" "http://www.w3.org/Graphics/SVG/1.1/DTD/svg11.dtd"><svg t="1564567084429" class="icon" viewBox="0 0 1024 1024" version="1.1" xmlns="http://www.w3.org/2000/svg" p-id="19411" xmlns:xlink="http://www.w3.org/1999/xlink" width="200" height="200"><defs><style type="text/css"></style></defs><path d="M194.4 877.6c-11.2 0-20-9.6-20-20V344.8h135.2c51.2 0 93.6-41.6 93.6-92.8V117.6h322.4c11.2 0 20 9.6 20 20v423.2c25.6 0 49.6 3.2 72.8 9.6V137.6c0-51.2-41.6-92.8-93.6-92.8h-368c-3.2 0-8 2.4-10.4 4.8l-44 44c-0.8 0.8-1.6 0.8-2.4 1.6L152 242.4l-2.4 2.4-44.8 44c-2.4 2.4-4.8 7.2-4.8 10.4v557.6c0 51.2 41.6 92.8 93.6 92.8H488c-9.6-22.4-16.8-47.2-20-72.8l-273.6 0.8z m19.2-610.4l111.2-110.4c2.4-2.4 4-1.6 4 1.6v92.8c0 11.2-9.6 20-20 20H215.2c-3.2 0.8-4-0.8-1.6-4z m441.6 640h152v36.8h-152v-36.8z" fill="#80D900" p-id="19412"></path><path d="M655.2 896.8h152v-94.4h116L728.8 599.2l-190.4 203.2h116.8v94.4z m0 58.4h152v24.8h-152v-24.8z m-218.4-800h140v53.6H436.8v-53.6z m168.8 0h96.8v91.2H605.6V155.2zM232.8 688.8h96.8v91.2H232.8V688.8z m204-410.4h264.8v53.6H436.8v-53.6zM232.8 380h468.8v53.6H232.8v-53.6z m0 106.4h468.8v53.6H232.8v-53.6z m133.6 239.2v53.6h96c3.2-18.4 8-36.8 14.4-53.6H366.4z m214.4-126.4H232.8v53.6H520c16.8-20.8 37.6-39.2 60.8-53.6z" fill="#80D900" p-id="19413"></path></svg>