<?xml version="1.0" standalone="no"?><!DOCTYPE svg PUBLIC "-//W3C//DTD SVG 1.1//EN" "http://www.w3.org/Graphics/SVG/1.1/DTD/svg11.dtd"><svg t="1564569308580" class="icon" viewBox="0 0 1024 1024" version="1.1" xmlns="http://www.w3.org/2000/svg" p-id="9227" xmlns:xlink="http://www.w3.org/1999/xlink" width="200" height="200"><defs><style type="text/css"></style></defs><path d="M192 216.746667m23.893333 0l50.773334 0q23.893333 0 23.893333 23.893333l0 543.146667q0 23.893333-23.893333 23.893333l-50.773334 0q-23.893333 0-23.893333-23.893333l0-543.146667q0-23.893333 23.893333-23.893333Z" fill="#D05E00" p-id="9228"></path><path d="M791.04 216.746667h-360.96a42.666667 42.666667 0 0 0-42.666667 42.666666V768a42.666667 42.666667 0 0 0 42.666667 42.666667h360.96a42.666667 42.666667 0 0 0 42.666667-42.666667V256a42.666667 42.666667 0 0 0-42.666667-39.253333z m-32.853333 432.64a59.733333 59.733333 0 0 1-59.306667 59.733333h-176.64a59.733333 59.733333 0 0 1-59.306667-59.733333V374.613333a59.733333 59.733333 0 0 1 59.306667-59.733333h176.64a59.733333 59.733333 0 0 1 59.306667 59.733333z" fill="#D05E00" p-id="9229"></path></svg>