<?xml version="1.0" standalone="no"?><!DOCTYPE svg PUBLIC "-//W3C//DTD SVG 1.1//EN" "http://www.w3.org/Graphics/SVG/1.1/DTD/svg11.dtd"><svg t="1564566924313" class="icon" viewBox="0 0 1024 1024" version="1.1" xmlns="http://www.w3.org/2000/svg" p-id="17420" xmlns:xlink="http://www.w3.org/1999/xlink" width="200" height="200"><defs><style type="text/css"></style></defs><path d="M514.3 511.8m-395.2 0a395.2 395.2 0 1 0 790.4 0 395.2 395.2 0 1 0-790.4 0Z" fill="#E80303" p-id="17421"></path><path d="M352.8 687.7l-3.5-3.3c-5.4-5.1-5.6-13.6-0.5-19l311-328.9c5.1-5.4 13.6-5.6 19-0.5l3.5 3.3c5.4 5.1 5.6 13.6 0.5 19l-311 328.9c-5.1 5.3-13.7 5.6-19 0.5z" fill="#FFFFFF" p-id="17422"></path><path d="M362 711.3c-8.6 0-16.7-3.2-23-9.1l-3.5-3.3c-13.4-12.7-14-33.9-1.3-47.3l311-328.9c12.7-13.4 33.9-14 47.3-1.3l3.5 3.3c13.4 12.7 14 33.9 1.3 47.3l-311 328.9c-6.1 6.5-14.4 10.2-23.4 10.4h-0.9z" fill="#FFFFFF" p-id="17423"></path><path d="M345.8 342l3.5-3.4c5.3-5.1 13.9-5 19 0.3L683.2 664c5.1 5.3 5 13.9-0.3 19l-3.5 3.4c-5.3 5.1-13.9 5-19-0.3L345.4 361c-5.1-5.3-5-13.9 0.4-19z" fill="#FFFFFF" p-id="17424"></path><path d="M670 710.2c-8.7 0-17.5-3.4-24-10.2L331.1 374.9c-12.8-13.2-12.5-34.5 0.8-47.3l3.5-3.4c6.4-6.2 14.8-9.6 23.8-9.4 8.9 0.1 17.3 3.7 23.5 10.2l314.9 325.1c12.8 13.2 12.5 34.5-0.8 47.3l-3.5 3.4c-6.5 6.3-14.9 9.4-23.3 9.4z" fill="#FFFFFF" p-id="17425"></path></svg>