<?xml version="1.0" standalone="no"?><!DOCTYPE svg PUBLIC "-//W3C//DTD SVG 1.1//EN" "http://www.w3.org/Graphics/SVG/1.1/DTD/svg11.dtd"><svg t="1564566166611" class="icon" viewBox="0 0 1024 1024" version="1.1" xmlns="http://www.w3.org/2000/svg" p-id="10026" xmlns:xlink="http://www.w3.org/1999/xlink" width="200" height="200"><defs><style type="text/css"></style></defs><path d="M374.352842 747.627789h0.053895-0.053895a44.032 44.032 0 1 1-0.053895-88.117894 44.032 44.032 0 0 1 0.053895 88.117894m372.951579-308.439578h-0.161684l-73.350737 74.051368c-6.736842 6.790737-29.803789 6.090105-29.803789 6.090105s-60.793263-6.844632-69.524211-15.629473c-8.730947-8.730947-14.713263-72.380632-14.713263-72.380632s-1.724632-17.785263 7.006316-26.516211l73.728-73.889684s8.299789-9.269895-3.772632-9.377684c-38.965895-0.107789-118.083368 0.754526-156.456421 39.181474l-7.976421 7.922526a125.359158 125.359158 0 0 0-14.44379 160.498526L309.355789 660.749474c-17.839158 17.946947-37.187368 70.709895 0 107.897263 37.187368 37.349053 89.680842 17.946947 107.62779 0 0 0 106.280421-119.646316 132.042105-148.048842 49.583158 36.109474 118.191158 30.504421 161.145263-13.312l7.868632-7.922527c37.187368-37.402947 38.373053-115.873684 38.480842-155.755789 0.107789-12.557474-9.162105-4.473263-9.162105-4.473263" fill="#57D0FF" p-id="10027"></path><path d="M423.612632 109.621895a427.762526 427.762526 0 0 1 441.613473 153.276631l-58.745263 32.229053 161.306947 95.178105v-188.092631l-64.512 36.486736A473.896421 473.896421 0 0 0 55.511579 566.433684l45.810526-11.587368a428.085895 428.085895 0 0 1 322.290527-445.170527z m207.710315 829.116631a427.762526 427.762526 0 0 1-441.667368-153.222737l58.745263-32.282947-162.600421-96.14821v188.092631l64.512-36.432842a473.896421 473.896421 0 0 0 849.111579-326.817684l-45.810526 11.587368a428.085895 428.085895 0 0 1-322.290527 445.170527z" fill="#57D0FF" p-id="10028"></path></svg>