<?xml version="1.0" standalone="no"?><!DOCTYPE svg PUBLIC "-//W3C//DTD SVG 1.1//EN" "http://www.w3.org/Graphics/SVG/1.1/DTD/svg11.dtd"><svg t="1564568927003" class="icon" viewBox="0 0 1024 1024" version="1.1" xmlns="http://www.w3.org/2000/svg" p-id="6505" xmlns:xlink="http://www.w3.org/1999/xlink" width="200" height="200"><defs><style type="text/css"></style></defs><path d="M128 482.133333h789.333333c-8.533333-34.133333-38.4-187.733333-162.133333-277.333333L823.466667 85.333333l-59.733334-38.4-76.8 119.466667c-46.933333-21.333333-102.4-34.133333-174.933333-34.133333-59.733333 0-110.933333 8.533333-157.866667 25.6L285.866667 46.933333 230.4 85.333333 298.666667 192c-136.533333 89.6-166.4 251.733333-170.666667 290.133333z m571.733333-204.8c34.133333 0 59.733333 25.6 59.733334 59.733334 0 34.133333-25.6 59.733333-59.733334 59.733333-34.133333 0-59.733333-25.6-59.733333-59.733333-4.266667-29.866667 25.6-59.733333 59.733333-59.733334z m-345.6 0c34.133333 0 59.733333 25.6 59.733334 59.733334 0 34.133333-25.6 59.733333-59.733334 59.733333-34.133333 0-59.733333-25.6-59.733333-59.733333 0-29.866667 25.6-59.733333 59.733333-59.733334zM524.8 678.4c-4.266667 12.8-8.533333 29.866667-8.533333 46.933333l76.8-4.266666c0-4.266667 0-8.533333 4.266666-8.533334l-72.533333-34.133333zM550.4 870.4l55.466667-93.866667c-8.533333-8.533333-17.066667-21.333333-17.066667-38.4l-106.666667 8.533334c4.266667 51.2 29.866667 93.866667 68.266667 123.733333zM793.6 793.6c8.533333-21.333333 12.8-42.666667 12.8-64 0-17.066667-4.266667-38.4-8.533333-55.466667l-68.266667 29.866667c4.266667 8.533333 4.266667 12.8 4.266667 21.333333s0 17.066667-4.266667 25.6l64 42.666667zM827.733333 729.6c0 25.6-8.533333 51.2-17.066666 76.8l93.866666 59.733333v-238.933333l-89.6 42.666667c8.533333 17.066667 12.8 38.4 12.8 59.733333zM704 554.666667l-17.066667 102.4c12.8 4.266667 25.6 12.8 34.133334 25.6l187.733333-85.333334v-42.666666h-209.066667 4.266667zM704 785.066667l12.8 29.866666c8.533333-4.266667 21.333333-12.8 25.6-25.6l-25.6-17.066666-12.8 12.8z" fill="" p-id="6506"></path><path d="M729.6 832l64 128-21.333333 8.533333-85.333334-174.933333c-4.266667 0-8.533333 4.266667-12.8 4.266667l4.266667 183.466666h230.4v-93.866666L768 797.866667c-12.8 17.066667-25.6 29.866667-38.4 34.133333zM460.8 750.933333l-98.133333 8.533334v-21.333334l128-8.533333c0-21.333333 4.266667-38.4 12.8-55.466667l-145.066667-64 8.533333-21.333333 234.666667 102.4 12.8-12.8-76.8-123.733333H128v426.666666h362.666667l51.2-89.6c-46.933333-34.133333-76.8-85.333333-81.066667-140.8zM648.533333 797.866667c-8.533333 0-17.066667-4.266667-25.6-8.533334l-34.133333 64c17.066667 12.8 38.4 17.066667 64 17.066667l-4.266667-72.533333zM576 874.666667L512 981.333333h136.533333v-85.333333c-25.6 0-51.2-8.533333-72.533333-21.333333zM563.2 554.666667l68.266667 106.666666c8.533333-4.266667 17.066667-4.266667 25.6-4.266666h4.266666l17.066667-102.4h-115.2z" fill="" p-id="6507"></path></svg>