<?xml version="1.0" standalone="no"?><!DOCTYPE svg PUBLIC "-//W3C//DTD SVG 1.1//EN" "http://www.w3.org/Graphics/SVG/1.1/DTD/svg11.dtd"><svg t="1564567233508" class="icon" viewBox="0 0 1024 1024" version="1.1" xmlns="http://www.w3.org/2000/svg" p-id="24181" xmlns:xlink="http://www.w3.org/1999/xlink" width="200" height="200"><defs><style type="text/css"></style></defs><path d="M951.07921 815.706023 557.94019 188.314946c-9.751494-15.609513-27.770626-25.317619-46.922605-25.317619-19.200077 0-37.172135 9.708106-46.967633 25.317619L70.895582 815.706023c-10.410531 16.618493-10.259075 37.169551 0.389896 53.613058 10.015518 15.47853 27.421664 24.706705 46.553176 24.706705l786.31795 0c19.157096 0 36.561195-9.228175 46.532709-24.706705C961.357728 852.874551 961.488717 832.324516 951.07921 815.706023L951.07921 815.706023zM561.217977 793.97407c0 5.77554-1.790861 11.501962-5.293785 15.872502-3.540788 4.375657-8.174513 6.561439-12.765257 6.561439l-62.625898 0c-4.634748 0-9.26745-2.184759-12.765257-6.561439-3.541811-4.370541-5.293785-10.102079-5.293785-15.872502l0-37.383422c0-5.731538 1.751974-11.501962 5.293785-15.872502 3.497807-4.375657 8.130509-6.561439 12.765257-6.561439l62.625898 0c4.590744 0 9.224469 2.185782 12.765257 6.561439 3.502924 4.370541 5.293785 10.146081 5.293785 15.872502L561.217977 793.97407 561.217977 793.97407zM555.881212 671.318542c-3.541811 2.930749-8.175536 4.414543-12.809261 4.370541l-62.230885-0.258896c-4.590744 0-9.186605-1.488911-12.684413-4.375657-3.497807-2.926656-5.248758-6.732331-5.292762-10.580986l-0.390919-105.60213L462.472971 389.017014c0-3.804652 1.746857-7.653307 5.249781-10.584056 3.541811-2.926656 8.174513-4.414543 12.765257-4.414543l62.53789 0c4.634748 0 9.268473 1.486864 12.766281 4.414543 3.546928 2.930749 5.292762 6.779404 5.292762 10.584056l0 164.630525 0.089031 107.003036C561.217977 664.543232 559.427116 668.391886 555.881212 671.318542L555.881212 671.318542zM555.881212 671.318542" fill="#fecb2f" p-id="24182"></path></svg>