<?xml version="1.0" standalone="no"?><!DOCTYPE svg PUBLIC "-//W3C//DTD SVG 1.1//EN" "http://www.w3.org/Graphics/SVG/1.1/DTD/svg11.dtd"><svg t="1564566447566" class="icon" viewBox="0 0 1024 1024" version="1.1" xmlns="http://www.w3.org/2000/svg" p-id="14028" xmlns:xlink="http://www.w3.org/1999/xlink" width="200" height="200"><defs><style type="text/css"></style></defs><path d="M528 524m-407 0a407 407 0 1 0 814 0 407 407 0 1 0-814 0Z" fill="#4A80F5" p-id="14029"></path><path d="M503.987 662.861c-9.539 9.903-25.446 10.201-35.349 0.662L322.917 523.161c-9.903-9.539-10.201-25.446-0.662-35.349 9.539-9.903 25.446-10.201 35.349-0.662l145.721 140.362c9.903 9.539 10.201 25.446 0.662 35.349z" fill="#FFFFFF" p-id="14030"></path><path d="M469.143 662.124c-9.723-9.723-9.723-25.633 0-35.355l247.135-247.135c9.723-9.723 25.633-9.723 35.355 0 9.723 9.723 9.723 25.633 0 35.355L504.499 662.124c-9.723 9.722-25.633 9.722-35.356 0z" fill="#FFFFFF" p-id="14031"></path></svg>