<?xml version="1.0" standalone="no"?><!DOCTYPE svg PUBLIC "-//W3C//DTD SVG 1.1//EN" "http://www.w3.org/Graphics/SVG/1.1/DTD/svg11.dtd"><svg t="1564566294167" class="icon" viewBox="0 0 1024 1024" version="1.1" xmlns="http://www.w3.org/2000/svg" p-id="12014" xmlns:xlink="http://www.w3.org/1999/xlink" width="200" height="200"><defs><style type="text/css"></style></defs><path d="M764.992 373.76c-49.984-95.04-148.736-161.28-264.96-161.28A298.496 298.496 0 0 0 213.76 427.52 191.744 191.744 0 0 0 63.744 615.04c0 106.24 86.272 214.976 192.512 214.976h192.512V576.256H320c-4.992 0-8.768-2.56-9.984-6.272-2.56-3.712-1.28-8.704 1.28-12.48L503.68 324.992c2.56-2.496 4.992-3.712 8.768-3.712s6.208 1.28 8.768 3.712l191.232 231.232c2.496 2.56 3.712 5.056 3.712 7.552a11.2 11.2 0 0 1-11.2 11.2H576.256v256.256h166.272c120 0 217.472-92.48 217.472-241.28 0-77.44-84.992-203.712-195.008-216.192z" fill="#39B3EF" p-id="12015"></path></svg>